<?xml version="1.0" encoding="UTF-8"?>
<svg version="1.1" xmlns="http://www.w3.org/2000/svg" width="663" height="811">
<path d="M0 0 C0 108.24 0 216.48 0 328 C-3.42218278 329.14072759 -6.04921105 329.12703315 -9.65869141 329.12939453 C-10.33051956 329.13114685 -11.00234772 329.13289917 -11.6945343 329.13470459 C-13.91357002 329.13910351 -16.13252598 329.13619268 -18.3515625 329.1328125 C-19.89187638 329.13348594 -21.43219015 329.13445631 -22.97250366 329.13571167 C-26.19880181 329.13718585 -29.42507226 329.13504246 -32.65136719 329.13037109 C-36.79555265 329.12466439 -40.93967348 329.12796051 -45.08385658 329.13394356 C-48.26303601 329.13754855 -51.44219998 329.13641104 -54.62137985 329.13381577 C-56.150069 329.13314682 -57.67875952 329.1339738 -59.20744705 329.13629532 C-61.33836871 329.13882187 -63.46918397 329.13498171 -65.60009766 329.12939453 C-67.4218602 329.12820114 -67.4218602 329.12820114 -69.28042603 329.12698364 C-72 329 -72 329 -73 328 C-73.12013025 325.29202356 -73.17549247 322.60846304 -73.18945312 319.89916992 C-73.19776626 319.04530197 -73.20607939 318.19143402 -73.21464443 317.31169128 C-73.24141324 314.45130466 -73.26123956 311.59091 -73.28125 308.73046875 C-73.29903317 306.71877102 -73.31731705 304.70707767 -73.33607483 302.69538879 C-73.37524383 298.41470079 -73.41164786 294.13400218 -73.4458313 289.85327148 C-73.53421132 278.83306417 -73.64041083 267.8130213 -73.74609375 256.79296875 C-73.75633009 255.70992336 -73.76656643 254.62687798 -73.77711296 253.51101303 C-73.94660917 235.67177962 -74.19151299 217.83623487 -74.5625 200 C-74.58473633 198.92632172 -74.60697266 197.85264343 -74.62988281 196.74642944 C-74.74677708 191.16412862 -74.86959117 185.58200105 -75 180 C-78.15072128 183.12572471 -81.29793136 186.2549331 -84.44213867 189.38720703 C-85.50892297 190.44900861 -86.57660853 191.50990558 -87.64526367 192.56982422 C-89.19436334 194.10658913 -90.74003011 195.64674113 -92.28515625 197.1875 C-93.67553101 198.57001953 -93.67553101 198.57001953 -95.09399414 199.98046875 C-97.27775227 202.20177175 -99.33043224 204.50871709 -101.36499023 206.8671875 C-105.02048203 211.08260575 -108.90710948 215.01763448 -112.875 218.9375 C-113.96723877 220.02405884 -113.96723877 220.02405884 -115.08154297 221.13256836 C-118.16056951 224.19542424 -121.24558323 227.25222311 -124.33007812 230.30957031 C-126.59715458 232.55844117 -128.86112966 234.81040238 -131.125 237.0625 C-131.81062012 237.73982178 -132.49624023 238.41714355 -133.20263672 239.11499023 C-136.41755919 242.31376326 -139.52388093 245.55134849 -142.48632812 248.98632812 C-146.16184758 253.24601207 -150.0935676 257.20298655 -154.09375 261.15625 C-155.21928284 262.27610291 -155.21928284 262.27610291 -156.36755371 263.4185791 C-159.54216504 266.57701112 -162.72275916 269.72939279 -165.90283203 272.88232422 C-168.23940361 275.20069745 -170.57287999 277.5221552 -172.90625 279.84375 C-173.6137439 280.54294556 -174.32123779 281.24214111 -175.0501709 281.96252441 C-178.32028932 285.21670147 -181.48641782 288.50579698 -184.5 292 C-188.17032816 296.25569005 -192.09813505 300.20750043 -196.09375 304.15625 C-197.21928284 305.27610291 -197.21928284 305.27610291 -198.36755371 306.4185791 C-201.54216504 309.57701112 -204.72275916 312.72939279 -207.90283203 315.88232422 C-210.23940361 318.20069745 -212.57287999 320.5221552 -214.90625 322.84375 C-215.6137439 323.54294556 -216.32123779 324.24214111 -217.0501709 324.96252441 C-220.99708565 328.89019852 -224.73499618 332.92707181 -228.37075806 337.14367676 C-230.71533356 339.81503568 -233.19399811 342.30589642 -235.71484375 344.8125 C-236.21544815 345.31168945 -236.71605255 345.81087891 -237.23182678 346.32519531 C-238.79800764 347.8858737 -240.36766471 349.44299847 -241.9375 351 C-243.01390654 352.07137887 -244.09008014 353.14299182 -245.16601562 354.21484375 C-247.77466745 356.81259638 -250.38644471 359.40717962 -253 362 C-245.60682616 370.70248211 -237.96566459 379.13519812 -229.82421875 387.14453125 C-227.98610162 389.01413647 -226.27014312 390.94850607 -224.5625 392.9375 C-221.99334729 395.92801716 -219.30682744 398.73116684 -216.5 401.5 C-213.0928121 404.86114482 -209.92541826 408.33701203 -206.8125 411.96875 C-204.7890712 414.23638572 -202.66346653 416.3657695 -200.5 418.5 C-197.73439592 421.22829407 -195.08712969 423.98516834 -192.5625 426.9375 C-189.84380752 430.1103592 -186.97248325 433.06338382 -184 436 C-180.41441301 439.54232199 -177.05108338 443.17555661 -173.77734375 447.00390625 C-171.76731223 449.26132626 -169.65167047 451.37735713 -167.5 453.5 C-164.73439592 456.22829407 -162.08712969 458.98516834 -159.5625 461.9375 C-156.84380752 465.1103592 -153.97248325 468.06338382 -151 471 C-147.41441301 474.54232199 -144.05108338 478.17555661 -140.77734375 482.00390625 C-138.05022777 485.06666727 -135.10595363 487.90223493 -132.1875 490.78125 C-129.59803119 493.40771122 -127.21163036 496.16976458 -124.8125 498.96875 C-122.7890712 501.23638572 -120.66346653 503.3657695 -118.5 505.5 C-115.73439592 508.22829407 -113.08712969 510.98516834 -110.5625 513.9375 C-107.84380752 517.1103592 -104.97248325 520.06338382 -102 523 C-98.42096894 526.53584516 -95.06145613 530.1601514 -91.796875 533.984375 C-88.98222683 537.14167599 -85.94927718 540.07170119 -82.91796875 543.01953125 C-81 545 -81 545 -79 548 C-78.67 501.47 -78.34 454.94 -78 407 C-60.241875 406.938125 -60.241875 406.938125 -42.125 406.875 C-36.51395264 406.84768799 -36.51395264 406.84768799 -30.78955078 406.81982422 C-26.22827148 406.81079102 -26.22827148 406.81079102 -24.09420776 406.80911255 C-22.60095021 406.8060376 -21.10769768 406.79899571 -19.61447144 406.78884888 C-17.35503486 406.7742605 -15.09590223 406.77218626 -12.83642578 406.77294922 C-11.56179474 406.768508 -10.2871637 406.76406677 -8.97390747 406.75949097 C-6 407 -6 407 -4 409 C-3.75160301 411.30665839 -3.75160301 411.30665839 -3.75390434 414.25927162 C-3.74992225 415.3814237 -3.74594015 416.50357578 -3.74183738 417.65973246 C-3.74766307 418.90290118 -3.75348875 420.1460699 -3.75949097 421.4269104 C-3.75692769 423.39570414 -3.75692769 423.39570414 -3.75431263 425.40427148 C-3.74982325 429.0597017 -3.75786448 432.71501556 -3.76786876 436.37043095 C-3.77647817 440.30771961 -3.77358488 444.24500133 -3.77206421 448.18229675 C-3.77101376 455.00799753 -3.777307 461.83366017 -3.78853989 468.65935135 C-3.80477035 478.5282394 -3.81000037 488.39710895 -3.81251587 498.2660089 C-3.81689684 514.27630806 -3.83021681 530.28658689 -3.84912109 546.296875 C-3.86746952 561.85253802 -3.88163109 577.40819553 -3.89013672 592.96386719 C-3.89092489 594.40131739 -3.89092489 594.40131739 -3.89172898 595.86780699 C-3.89433899 600.67515256 -3.89686642 605.48249816 -3.89935279 610.2898438 C-3.92009779 650.19324344 -3.95533422 690.09662038 -4 730 C-5.32 730.66 -6.64 731.32 -8 732 C-8.37769531 731.55011719 -8.75539063 731.10023438 -9.14453125 730.63671875 C-13.20676553 725.88951757 -17.50309709 721.45654737 -21.95043945 717.0690918 C-25.17801462 713.86806738 -28.17840145 710.55033676 -31.125 707.09375 C-33.48345248 704.46014473 -35.98445404 701.98173486 -38.5 699.5 C-42.21845505 695.83152419 -45.73668195 692.06850771 -49.125 688.09375 C-51.48345248 685.46014473 -53.98445404 682.98173486 -56.5 680.5 C-60.21845505 676.83152419 -63.73668195 673.06850771 -67.125 669.09375 C-69.48345248 666.46014473 -71.98445404 663.98173486 -74.5 661.5 C-78.21845505 657.83152419 -81.73668195 654.06850771 -85.125 650.09375 C-87.48345248 647.46014473 -89.98445404 644.98173486 -92.5 642.5 C-96.21845505 638.83152419 -99.73668195 635.06850771 -103.125 631.09375 C-105.48345248 628.46014473 -107.98445404 625.98173486 -110.5 623.5 C-114.21845505 619.83152419 -117.73668195 616.06850771 -121.125 612.09375 C-123.48345248 609.46014473 -125.98445404 606.98173486 -128.5 604.5 C-132.21845505 600.83152419 -135.73668195 597.06850771 -139.125 593.09375 C-141.48345248 590.46014473 -143.98445404 587.98173486 -146.5 585.5 C-150.21845505 581.83152419 -153.73668195 578.06850771 -157.125 574.09375 C-159.48345248 571.46014473 -161.98445404 568.98173486 -164.5 566.5 C-168.21845505 562.83152419 -171.73668195 559.06850771 -175.125 555.09375 C-177.48345248 552.46014473 -179.98445404 549.98173486 -182.5 547.5 C-186.21845505 543.83152419 -189.73668195 540.06850771 -193.125 536.09375 C-195.48345248 533.46014473 -197.98445404 530.98173486 -200.5 528.5 C-204.21845505 524.83152419 -207.73668195 521.06850771 -211.125 517.09375 C-213.48345248 514.46014473 -215.98445404 511.98173486 -218.5 509.5 C-222.21845505 505.83152419 -225.73668195 502.06850771 -229.125 498.09375 C-231.48345248 495.46014473 -233.98445404 492.98173486 -236.5 490.5 C-240.21845505 486.83152419 -243.73668195 483.06850771 -247.125 479.09375 C-249.48345248 476.46014473 -251.98445404 473.98173486 -254.5 471.5 C-258.21845505 467.83152419 -261.73668195 464.06850771 -265.125 460.09375 C-267.48345248 457.46014473 -269.98445404 454.98173486 -272.5 452.5 C-276.21845505 448.83152419 -279.73668195 445.06850771 -283.125 441.09375 C-285.48345018 438.4601473 -287.98442914 435.98170822 -290.5 433.5 C-294.39397947 429.64887038 -298.11291314 425.73029042 -301.66015625 421.55859375 C-302.72064136 420.32496821 -303.84968251 419.15031749 -305 418 C-308.74420384 418.05811403 -310.75784918 420.41922683 -313.27539062 422.96289062 C-314.03625977 423.75469727 -314.03625977 423.75469727 -314.8125 424.5625 C-315.30814453 425.06330078 -315.80378906 425.56410156 -316.31445312 426.08007812 C-319.05993065 428.88209058 -321.67782627 431.76577604 -324.2331543 434.74194336 C-327.80571772 438.83583487 -331.57184494 442.6843214 -335.4375 446.5 C-336.46315063 447.5199707 -336.46315063 447.5199707 -337.50952148 448.56054688 C-340.39737773 451.43225143 -343.29123075 454.29788438 -346.18457031 457.1640625 C-348.31265725 459.27392787 -350.43762917 461.38689645 -352.5625 463.5 C-353.20437256 464.13357422 -353.84624512 464.76714844 -354.50756836 465.41992188 C-357.60305397 468.49884977 -360.58138423 471.62344154 -363.43164062 474.93164062 C-367.26028168 479.36443717 -371.36823669 483.47672203 -375.53125 487.59375 C-376.32599731 488.38471069 -377.12074463 489.17567139 -377.9395752 489.99060059 C-381.30535548 493.34018573 -384.67711048 496.6837327 -388.04833984 500.02783203 C-390.52390227 502.48520939 -392.99638083 504.94566058 -395.46875 507.40625 C-396.21999146 508.14919312 -396.97123291 508.89213623 -397.74523926 509.65759277 C-401.76978572 513.66361481 -405.58848084 517.76813702 -409.29431152 522.06945801 C-412.13032722 525.27933335 -415.17083719 528.27413181 -418.21875 531.28125 C-418.88032104 531.93903442 -419.54189209 532.59681885 -420.22351074 533.27453613 C-423.01578144 536.05066558 -425.81405416 538.82071537 -428.61181641 541.59130859 C-430.67040898 543.6316708 -432.72587903 545.67514331 -434.78125 547.71875 C-435.71124817 548.63630066 -435.71124817 548.63630066 -436.66003418 549.5723877 C-440.37230089 553.2641322 -443.85284175 557.08921617 -447.27502441 561.0501709 C-449.98310679 564.11125645 -452.87143859 566.9758415 -455.78125 569.84375 C-456.39842896 570.45714233 -457.01560791 571.07053467 -457.65148926 571.70251465 C-460.25258789 574.28749518 -462.85970014 576.86637822 -465.46630859 579.44580078 C-473.71187855 587.47691666 -473.71187855 587.47691666 -481.46875 595.96875 C-487.80374243 603.44099771 -495.08311582 610.13256724 -502.0390625 617.01855469 C-504.02816103 618.98941341 -506.01412897 620.96339005 -508 622.9375 C-508.598125 623.52732666 -509.19625 624.11715332 -509.8125 624.72485352 C-512.80650473 627.70173294 -515.67388887 630.73375771 -518.43164062 633.93164062 C-522.12788101 638.20733057 -526.07530083 642.18493403 -530.09375 646.15625 C-530.84410522 646.9028186 -531.59446045 647.64938721 -532.36755371 648.4185791 C-535.54216504 651.57701112 -538.72275916 654.72939279 -541.90283203 657.88232422 C-544.23940361 660.20069745 -546.57287999 662.5221552 -548.90625 664.84375 C-549.6137439 665.54294556 -550.32123779 666.24214111 -551.0501709 666.96252441 C-554.96344313 670.85672 -558.66066734 674.86065282 -562.26550293 679.04064941 C-565.18175018 682.33494771 -568.30744383 685.41041022 -571.4375 688.5 C-572.12126709 689.17998047 -572.80503418 689.85996094 -573.50952148 690.56054688 C-576.39737773 693.43225143 -579.29123075 696.29788438 -582.18457031 699.1640625 C-584.31265725 701.27392787 -586.43762917 703.38689645 -588.5625 705.5 C-589.20437256 706.13357422 -589.84624512 706.76714844 -590.50756836 707.41992188 C-594.88538516 711.77432178 -598.97191943 716.32239464 -603 721 C-604.60785488 722.84684517 -606.13587151 724.38778076 -608 726 C-609.32 726 -610.64 726 -612 726 C-611.67 620.73 -611.34 515.46 -611 407 C-607.21353257 406.05338314 -604.30446864 405.87322999 -600.42724609 405.87060547 C-599.45095497 405.86797699 -599.45095497 405.86797699 -598.4549408 405.86529541 C-596.31107897 405.86090642 -594.16730011 405.86380377 -592.0234375 405.8671875 C-590.53178898 405.86651378 -589.04014057 405.86554318 -587.54849243 405.86428833 C-584.42652335 405.8628155 -581.30458293 405.86495321 -578.18261719 405.86962891 C-574.17644162 405.87533585 -570.17033291 405.87203848 -566.16415977 405.86605644 C-563.08616631 405.86244808 -560.00818879 405.86359051 -556.93019485 405.86618423 C-555.45257179 405.86685223 -553.97494729 405.86602952 -552.4973259 405.86370468 C-550.43616635 405.86117258 -548.37511622 405.86502617 -546.31396484 405.87060547 C-545.14022308 405.87140106 -543.96648132 405.87219666 -542.75717163 405.87301636 C-540 406 -540 406 -538 407 C-537.67 452.87 -537.34 498.74 -537 546 C-533.04 541.71 -529.08 537.42 -525 533 C-522.30242872 530.240886 -519.60071698 527.50250671 -516.85546875 524.79296875 C-516.15658035 524.09786697 -515.45769196 523.4027652 -514.73762512 522.68659973 C-512.55675532 520.51769219 -510.37259126 518.35215393 -508.1875 516.1875 C-505.28215117 513.30899632 -502.38032469 510.42700481 -499.48046875 507.54296875 C-498.83240768 506.90320602 -498.18434662 506.2634433 -497.51664734 505.60429382 C-494.4032109 502.50740708 -491.40680583 499.36437341 -488.53833008 496.03833008 C-484.85345902 491.77143512 -480.91466935 487.80515379 -476.90625 483.84375 C-476.15589478 483.0971814 -475.40553955 482.35061279 -474.63244629 481.5814209 C-471.45783496 478.42298888 -468.27724084 475.27060721 -465.09716797 472.11767578 C-462.76059639 469.79930255 -460.42712001 467.4778448 -458.09375 465.15625 C-457.3862561 464.45705444 -456.67876221 463.75785889 -455.9498291 463.03747559 C-452.67971068 459.78329853 -449.51358218 456.49420302 -446.5 453 C-442.82967184 448.74430995 -438.90186495 444.79249957 -434.90625 440.84375 C-434.15589478 440.0971814 -433.40553955 439.35061279 -432.63244629 438.5814209 C-429.45783496 435.42298888 -426.27724084 432.27060721 -423.09716797 429.11767578 C-420.76059639 426.79930255 -418.42712001 424.4778448 -416.09375 422.15625 C-415.3862561 421.45705444 -414.67876221 420.75785889 -413.9498291 420.03747559 C-410.04527037 416.15195103 -406.35816644 412.15673863 -402.76135254 407.98620605 C-399.69749375 404.53121636 -396.40892942 401.30668269 -393.125 398.0625 C-392.39684082 397.33812744 -391.66868164 396.61375488 -390.91845703 395.86743164 C-387.83943049 392.80457576 -384.75441677 389.74777689 -381.66992188 386.69042969 C-379.40284542 384.44155883 -377.13887034 382.18959762 -374.875 379.9375 C-373.84656982 378.92151733 -373.84656982 378.92151733 -372.79736328 377.88500977 C-369.58244081 374.68623674 -366.47611907 371.44865151 -363.51367188 368.01367188 C-359.83815242 363.75398793 -355.9064324 359.79701345 -351.90625 355.84375 C-350.78071716 354.72389709 -350.78071716 354.72389709 -349.63244629 353.5814209 C-346.45783496 350.42298888 -343.27724084 347.27060721 -340.09716797 344.11767578 C-337.76059639 341.79930255 -335.42712001 339.4778448 -333.09375 337.15625 C-332.3862561 336.45705444 -331.67876221 335.75785889 -330.9498291 335.03747559 C-327.67971068 331.78329853 -324.51358218 328.49420302 -321.5 325 C-317.82967184 320.74430995 -313.90186495 316.79249957 -309.90625 312.84375 C-308.78071716 311.72389709 -308.78071716 311.72389709 -307.63244629 310.5814209 C-304.45783496 307.42298888 -301.27724084 304.27060721 -298.09716797 301.11767578 C-295.76059639 298.79930255 -293.42712001 296.4778448 -291.09375 294.15625 C-290.3862561 293.45705444 -289.67876221 292.75785889 -288.9498291 292.03747559 C-285.04527037 288.15195103 -281.35816644 284.15673863 -277.76135254 279.98620605 C-274.69749375 276.53121636 -271.40892942 273.30668269 -268.125 270.0625 C-267.03276123 268.97594116 -267.03276123 268.97594116 -265.91845703 267.86743164 C-262.83943049 264.80457576 -259.75441677 261.74777689 -256.66992188 258.69042969 C-254.40284542 256.44155883 -252.13887034 254.18959762 -249.875 251.9375 C-249.18937988 251.26017822 -248.50375977 250.58285645 -247.79736328 249.88500977 C-244.58244081 246.68623674 -241.47611907 243.44865151 -238.51367188 240.01367188 C-234.83815242 235.75398793 -230.9064324 231.79701345 -226.90625 227.84375 C-226.15589478 227.0971814 -225.40553955 226.35061279 -224.63244629 225.5814209 C-221.45783496 222.42298888 -218.27724084 219.27060721 -215.09716797 216.11767578 C-212.76059639 213.79930255 -210.42712001 211.4778448 -208.09375 209.15625 C-207.3862561 208.45705444 -206.67876221 207.75785889 -205.9498291 207.03747559 C-202.67971068 203.78329853 -199.51358218 200.49420302 -196.5 197 C-192.82967184 192.74430995 -188.90186495 188.79249957 -184.90625 184.84375 C-184.15589478 184.0971814 -183.40553955 183.35061279 -182.63244629 182.5814209 C-179.45783496 179.42298888 -176.27724084 176.27060721 -173.09716797 173.11767578 C-170.76059639 170.79930255 -168.42712001 168.4778448 -166.09375 166.15625 C-165.3862561 165.45705444 -164.67876221 164.75785889 -163.9498291 164.03747559 C-160.04527037 160.15195103 -156.35816644 156.15673863 -152.76135254 151.98620605 C-149.69749375 148.53121636 -146.40892942 145.30668269 -143.125 142.0625 C-142.03276123 140.97594116 -142.03276123 140.97594116 -140.91845703 139.86743164 C-137.83943049 136.80457576 -134.75441677 133.74777689 -131.66992188 130.69042969 C-129.40284542 128.44155883 -127.13887034 126.18959762 -124.875 123.9375 C-123.84656982 122.92151733 -123.84656982 122.92151733 -122.79736328 121.88500977 C-119.58244081 118.68623674 -116.47611907 115.44865151 -113.51367188 112.01367188 C-109.83815242 107.75398793 -105.9064324 103.79701345 -101.90625 99.84375 C-101.15589478 99.0971814 -100.40553955 98.35061279 -99.63244629 97.5814209 C-96.45783496 94.42298888 -93.27724084 91.27060721 -90.09716797 88.11767578 C-87.76059639 85.79930255 -85.42712001 83.4778448 -83.09375 81.15625 C-82.3862561 80.45705444 -81.67876221 79.75785889 -80.9498291 79.03747559 C-77.67971068 75.78329853 -74.51358218 72.49420302 -71.5 69 C-67.82967184 64.74430995 -63.90186495 60.79249957 -59.90625 56.84375 C-58.78071716 55.72389709 -58.78071716 55.72389709 -57.63244629 54.5814209 C-54.45783496 51.42298888 -51.27724084 48.27060721 -48.09716797 45.11767578 C-45.76059639 42.79930255 -43.42712001 40.4778448 -41.09375 38.15625 C-40.03250916 37.10745667 -40.03250916 37.10745667 -38.9498291 36.03747559 C-34.9977453 32.10465763 -31.24767414 28.06509303 -27.60690308 23.84289551 C-24.01586136 19.72446749 -20.13886221 15.87505281 -16.29223633 11.99707031 C-15.29592051 10.98908342 -14.30412688 9.97660884 -13.31665039 8.95996094 C-11.87304296 7.47391539 -10.41684205 6.00136015 -8.95703125 4.53125 C-8.10085205 3.66048828 -7.24467285 2.78972656 -6.36254883 1.89257812 C-4 0 -4 0 0 0 Z " fill="#BD207D" transform="translate(637,36)"/>
<path d="M0 0 C3 0 3 0 4.5078125 1.43359375 C5.30832031 2.42552734 5.30832031 2.42552734 6.125 3.4375 C8.78633056 6.62099036 11.53789925 9.59350183 14.5 12.5 C17.9288279 15.88241399 21.12048518 19.38070442 24.25390625 23.03515625 C26.72481389 25.81561832 29.3816694 28.39118218 32.03125 31 C34.55425459 33.56305228 36.87562817 36.27345824 39.21875 39 C41.0742521 41.08337078 43.01223101 43.04281207 45 45 C48.25029983 48.20029522 51.24724245 51.54224576 54.21875 55 C56.0742521 57.08337078 58.01223101 59.04281207 60 61 C62.59982183 63.55990134 65.06268398 66.1677954 67.4375 68.9375 C70.00665271 71.92801716 72.69317256 74.73116684 75.5 77.5 C78.26560408 80.22829407 80.91287031 82.98516834 83.4375 85.9375 C86.15619248 89.1103592 89.02751675 92.06338382 92 95 C95.56400302 98.52106323 98.90304168 102.13186008 102.15625 105.9375 C104.34796313 108.38924689 106.66067104 110.68885573 109 113 C112.56400302 116.52106323 115.90304168 120.13186008 119.15625 123.9375 C121.34796313 126.38924689 123.66067104 128.68885573 126 131 C128.93118191 133.89591958 131.76403174 136.80242571 134.4375 139.9375 C137.30172374 143.28925119 140.36334469 146.40556078 143.5 149.5 C146.59491872 152.55337618 149.61934297 155.62323708 152.4375 158.9375 C155.45352804 162.47679074 158.69447578 165.73494745 162 169 C165.89895683 172.85121937 169.60824297 176.76421729 173.16015625 180.94140625 C175.50495064 183.56498723 177.99630568 186.02990104 180.5 188.5 C183.59491133 191.55338283 186.61934257 194.62323661 189.4375 197.9375 C192.45352804 201.47679074 195.69447578 204.73494745 199 208 C202.89895683 211.85121937 206.60824297 215.76421729 210.16015625 219.94140625 C212.50495064 222.56498723 214.99630568 225.02990104 217.5 227.5 C220.59491133 230.55338283 223.61934257 233.62323661 226.4375 236.9375 C229.45352804 240.47679074 232.69447578 243.73494745 236 247 C239.89895683 250.85121937 243.60824297 254.76421729 247.16015625 258.94140625 C250.3279628 262.48585222 253.75645234 265.77394758 257.15625 269.09375 C259.31327484 271.24277598 261.30555618 273.49159417 263.28515625 275.8046875 C265.86385155 278.7869863 268.55252594 281.56465397 271.40234375 284.2890625 C272.14677734 285.00320313 272.89121094 285.71734375 273.65820312 286.453125 C275.19599719 287.91844377 276.74314339 289.37400179 278.29882812 290.8203125 C279.40194336 291.88765625 279.40194336 291.88765625 280.52734375 292.9765625 C281.19499756 293.60643066 281.86265137 294.23629883 282.55053711 294.88525391 C284 297 284 297 284.66650391 299.76757812 C283.63365834 304.77668996 280.43040231 307.29152004 276.80859375 310.7421875 C276.07052994 311.46938995 275.33246613 312.19659241 274.57203674 312.9458313 C272.20759876 315.2700969 269.8235459 317.57294099 267.4375 319.875 C265.08078616 322.17400924 262.72832987 324.47726714 260.37794495 326.78274536 C258.91553175 328.21443805 257.44877754 329.64171536 255.97691345 331.06369019 C251.93897293 334.98621315 248.13484399 339.01984793 244.48339844 343.30569458 C242.65627078 345.39260004 240.68278546 347.21449646 238.5625 349 C237.88316406 349.5775 237.20382812 350.155 236.50390625 350.75 C236.00761719 351.1625 235.51132812 351.575 235 352 C230.6672817 350.3343808 227.86477644 347.12550667 224.6875 343.875 C223.81375732 342.99158936 223.81375732 342.99158936 222.92236328 342.09033203 C219.40799945 338.5130889 216.04861346 334.84836512 212.8046875 331.0234375 C210.02214671 327.90361904 207.02315975 325.00266307 204.04858398 322.06811523 C200.79966524 318.84601474 197.77541079 315.50641697 194.80859375 312.02734375 C192.63041508 309.58571366 190.32751992 307.29951968 188 305 C185.06881809 302.10408042 182.23596826 299.19757429 179.5625 296.0625 C176.69827665 292.71074927 173.63666284 289.59443244 170.5 286.5 C166.75969662 282.81005412 163.2176065 279.02496302 159.80859375 275.02734375 C157.63041508 272.58571366 155.32751992 270.29951968 153 268 C150.06881809 265.10408042 147.23596826 262.19757429 144.5625 259.0625 C141.69827665 255.71074927 138.63666284 252.59443244 135.5 249.5 C131.75969662 245.81005412 128.2176065 242.02496302 124.80859375 238.02734375 C122.63041508 235.58571366 120.32751992 233.29951968 118 231 C115.06881809 228.10408042 112.23596826 225.19757429 109.5625 222.0625 C106.69827645 218.71074904 103.63665907 215.59443583 100.5 212.5 C96.78681486 208.83673165 93.27141605 205.0809839 89.890625 201.109375 C86.57933411 197.41495955 82.99928183 193.9825381 79.453125 190.515625 C77 188 77 188 74 184 C73.67 233.83 73.34 283.66 73 335 C48.91 335 24.82 335 0 335 C0 224.45 0 113.9 0 0 Z " fill="#8A2A72" transform="translate(31,29)"/>
</svg>
